<?xml version="1.0" encoding="UTF-8"?>
<svg id="Layer_1" data-name="Layer 1" xmlns="http://www.w3.org/2000/svg" viewBox="0 0 332.71 337.85">
  <defs>
    <style>
      .cls-1 {
        fill: #ffffff;
      }
    </style>
  </defs>
  <path class="cls-1" d="M256.01,27.62H80.68c-30.94,0-56.25,25.31-56.25,56.25v175.33c0,30.94,25.31,56.25,56.25,56.25h175.33c30.94,0,56.25-25.31,56.25-56.25V83.87c0-30.94-25.31-56.25-56.25-56.25ZM252.15,222.48c-13.63,22.9-36.26,39.57-62.07,45.73-7.58,1.81-15.29,2.7-22.97,2.7-19.44,0-38.68-5.7-55.02-16.62-12.23-8.17-22.68-19.17-30.2-31.81-2.59-4.34-1.16-9.96,3.18-12.55,4.34-2.59,9.96-1.16,12.55,3.18,6.14,10.31,14.66,19.28,24.64,25.95,18.58,12.42,41.76,16.55,63.57,11.34,21.03-5.02,39.47-18.61,50.59-37.29,2.59-4.34,8.21-5.77,12.55-3.18,4.34,2.59,5.77,8.21,3.18,12.55ZM118.24,192.34v-47.41c0-4.41,3.61-8.02,8.02-8.02h22.18c4.41,0,8.02,3.61,8.02,8.02v47.41c0,4.41-3.61,8.02-8.02,8.02h-22.18c-4.41,0-8.02-3.61-8.02-8.02ZM177.56,192.34v-47.41c0-4.41,3.61-8.02,8.02-8.02h22.18c4.41,0,8.02,3.61,8.02,8.02v47.41c0,4.41-3.61,8.02-8.02,8.02h-22.18c-4.41,0-8.02-3.61-8.02-8.02ZM261.45,176.23c0,5.06-4.1,9.15-9.15,9.15s-9.15-4.1-9.15-9.15v-41.79c-8.19-7.36-43.3-29.94-76.54-50.05-31.76,20.09-65.28,42.63-73.04,49.93v41.88c0,5.06-4.1,9.15-9.15,9.15s-9.15-4.1-9.15-9.15v-44.82c0-5.41,3.24-9.14,16.53-18.99,6.93-5.14,16.55-11.81,28.59-19.83,20.39-13.57,41.04-26.56,41.25-26.69l4.76-2.99,4.82,2.9c.22.13,21.8,13.11,43.1,26.68,12.58,8.01,22.63,14.68,29.87,19.81,13.88,9.84,17.27,13.59,17.27,19.1v44.85Z"/>
</svg>
