<?xml version="1.0" encoding="UTF-8"?>
<svg id="Camada_1" data-name="Camada 1" xmlns="http://www.w3.org/2000/svg" viewBox="0 0 253.44 127.59">
  <defs>
    <style>
      .cls-1, .cls-2, .cls-3 {
        fill: #fff;
      }

      .cls-2 {
        font-size: 54.66px;
      }

      .cls-2, .cls-3 {
        font-family: MonumentExtended-Ultrabold, 'Monument Extended';
        font-weight: 700;
      }

      .cls-4 {
        letter-spacing: -.02em;
      }

      .cls-3 {
        font-size: 32.92px;
      }
    </style>
  </defs>
  <g>
    <path class="cls-1" d="M91.48,80.37c-.19,17.35-9.74,33.31-25.37,40.79-16.04,7.68-35.29,3.54-47.99-8.53-23.66-22.48-12.28-59.81,1.02-84.72,5.05-9.47,12.04-20.1,22.26-24.39,9.73-4.08,19.11,3.3,25.21,10.29,8.23,9.43,13.72,21.3,17.93,33.02,3.81,10.62,6.87,22.16,6.94,33.53,0,1.91,4.22,1.04,4.21-.47-.09-13.47-4-26.95-8.9-39.36-5.02-12.7-11.99-26.08-22.77-34.72-8.76-7.03-19.35-7.72-28.9-1.87-11.33,6.94-18.62,20.16-23.94,31.96C5.47,48.58,1.19,62.48.14,76.41c-1.18,15.53,5.07,30.53,16.93,40.48,12.15,10.18,28.82,13.05,43.86,8.81,14.8-4.17,26.7-15.63,32.04-30.08,1.86-5.02,2.66-10.38,2.72-15.72.02-1.9-4.2-1.06-4.21.47Z"/>
    <g>
      <path class="cls-1" d="M35.25,107.38c0,1.09,6.07,4.01,12.55,4.01s11.71-2.73,11.71-3.82l-24.26-.19Z"/>
      <path class="cls-1" d="M62.9,102.35c0-.62-1.34-1.2-3.57-1.64,2.23-.44,3.57-1.01,3.57-1.64,0-1.41-6.77-2.54-15.11-2.54s-15.12,1.14-15.12,2.54c0,.62,1.35,1.19,3.57,1.64-2.23.44-3.57,1.01-3.57,1.64,0,.71,1.71,1.34,4.47,1.8-2.75.46-4.47,1.1-4.47,1.8,0,1.4,6.77,2.54,15.12,2.54s15.11-1.14,15.11-2.54c0-.7-1.7-1.34-4.46-1.8,2.75-.46,4.46-1.1,4.46-1.8Z"/>
      <path class="cls-1" d="M47.84,28.45c-14.98,0-27.12,28.82-27.12,43.95s12.14,27.4,27.12,27.4,27.11-12.27,27.11-27.4-12.14-43.95-27.11-43.95ZM47.16,96.53c-13.06,0-23.65-10.7-23.65-23.9,0-6.67,2.71-15.12,7.07-21.86-3.25,6.09-5.2,13.03-5.2,18.69,0,13.2,10.59,23.9,23.65,23.9,8,0,15.07-4.02,19.35-10.17-3.86,7.9-11.91,13.34-21.21,13.34Z"/>
    </g>
  </g>
  <text class="cls-2" transform="translate(111.77 71.77)"><tspan x="0" y="0">EGG</tspan></text>
  <text class="cls-3" transform="translate(113.19 99.81)"><tspan class="cls-4" x="0" y="0">s</tspan><tspan x="26.8" y="0">tudio</tspan></text>
</svg>
