<?xml version="1.0" encoding="UTF-8"?>
<svg id="Layer_1" data-name="Layer 1" xmlns="http://www.w3.org/2000/svg" viewBox="0 0 524.85 172.88">
  <defs>
    <style>
      .cls-1 {
        fill: #fff;
      }
    </style>
  </defs>
  <path class="cls-1" d="M86.6,161.54c-14.42,0-28.7-4.23-40.82-12.33-9.08-6.06-16.82-14.22-22.4-23.6-1.92-3.22-.86-7.39,2.36-9.31,3.22-1.92,7.39-.86,9.31,2.36,4.55,7.65,10.87,14.31,18.28,19.25,13.79,9.21,30.98,12.28,47.17,8.41,15.6-3.73,29.28-13.81,37.53-27.67,1.92-3.22,6.09-4.28,9.31-2.36,3.22,1.92,4.28,6.09,2.36,9.31-10.12,16.99-26.9,29.36-46.05,33.93-5.62,1.34-11.35,2-17.04,2Z"/>
  <path class="cls-1" d="M149.8,98.08c-3.75,0-6.79-3.04-6.79-6.79v-31c-6.08-5.46-32.13-22.22-56.79-37.14-23.57,14.91-48.43,31.63-54.19,37.05v31.07c0,3.75-3.04,6.79-6.79,6.79s-6.79-3.04-6.79-6.79v-33.26c0-4.02,2.41-6.78,12.26-14.09,5.14-3.81,12.28-8.76,21.22-14.71,15.13-10.07,30.45-19.7,30.6-19.8l3.53-2.22,3.58,2.15c.16.1,16.17,9.73,31.98,19.8,9.33,5.95,16.79,10.89,22.16,14.7,10.3,7.3,12.81,10.08,12.81,14.17v33.27c0,3.75-3.04,6.79-6.79,6.79Z"/>
  <rect class="cls-1" x="50.34" y="62.11" width="28.36" height="47.08" rx="10.63" ry="10.63"/>
  <rect class="cls-1" x="94.36" y="62.11" width="28.36" height="47.08" rx="10.63" ry="10.63"/>
  <g>
    <path class="cls-1" d="M185.51,114.28c-2.03-2.03-3.05-4.5-3.05-7.4v-45.57c0-2.9,1.01-5.36,3.03-7.38s4.46-3.03,7.33-3.03,5.25,1.03,7.31,3.09c.67.67,1.22,1.39,1.65,2.15.43.77.78,1.62,1.02,2.55.25.93.37,1.83.37,2.7v13.01h20.2v-13.01c0-1.36.27-2.7.81-4,.54-1.31,1.28-2.44,2.24-3.4,2.06-2.06,4.5-3.09,7.31-3.09,1.33,0,2.65.25,3.96.76,1.31.51,2.42,1.26,3.35,2.24.67.67,1.22,1.39,1.65,2.15.43.77.78,1.62,1.02,2.55.25.93.37,1.83.37,2.7v45.57c0,1.36-.27,2.7-.81,4-.54,1.31-1.28,2.44-2.24,3.4-2,2-4.41,3-7.23,3-1.36,0-2.64-.24-3.83-.72-1.19-.48-2.35-1.24-3.48-2.29-2.03-1.94-3.05-4.41-3.05-7.4v-14.45h-20.41v14.45c0,3.02-1,5.48-3,7.4-.99,1.02-2.11,1.77-3.37,2.26-1.26.49-2.55.74-3.85.74-2.87,0-5.31-1-7.31-3Z"/>
    <path class="cls-1" d="M300.51,88.95c0,2.9-.62,4.95-1.87,6.14-1.25,1.19-3.32,1.78-6.22,1.78h-23.2c.12.17.65.74,1.61,1.7.84.64,1.65,1.11,2.42,1.41.77.3,1.81.55,3.11.74,1.31.19,2.89.28,4.74.28,1.8-.09,4.08-.51,6.83-1.26,2.12-.52,3.61-.78,4.48-.78,2.35,0,4.23.68,5.64,2.05,1.41,1.36,2.11,3.05,2.11,5.05,0,.73-.06,1.29-.17,1.7-.32,1.1-.82,2.09-1.5,2.96-.68.87-1.58,1.65-2.7,2.33-1.12.68-2.69,1.39-4.72,2.11-2.5.75-5.05,1.29-7.66,1.61-1.83.23-3.79.35-5.88.35-4.32,0-8.29-.63-11.91-1.89-3.61-1.26-6.71-3.05-9.29-5.38-2.58-2.32-4.54-5.05-5.88-8.18-1.33-3.13-2-6.56-2-10.27.09-3.28.82-6.42,2.2-9.42,1.38-3,3.23-5.59,5.57-7.75,2.34-2.16,5.11-3.87,8.34-5.11,3.22-1.25,6.7-1.87,10.45-1.87,4.96.09,9.39,1.23,13.28,3.44,2.38,1.39,4.48,3.11,6.29,5.16,1.81,2.05,3.23,4.21,4.27,6.49,1.03,2.28,1.59,4.49,1.68,6.64ZM269.38,87.16h10.62c0-.35-.03-.64-.09-.87-.44-2.87-2.45-4.31-6.05-4.31-2.12.52-3.55,1.99-4.31,4.4-.12.35-.17.61-.17.78Z"/>
    <path class="cls-1" d="M305.42,68.1c1.42-.67,2.87-1,4.35-1,1.31,0,2.56.29,3.77.87,1.2.58,2.31,1.47,3.31,2.68,1,1.2,1.79,2.65,2.37,4.33l5.01,13.97,4.53-13.71c.38-1.25.97-2.58,1.78-4,.78-1.33,1.86-2.36,3.22-3.07,1.36-.71,2.81-1.07,4.35-1.07,2.96,0,5.48,1.13,7.57,3.4,1.63,1.71,2.44,3.83,2.44,6.36,0,1.51-.33,2.99-1,4.44l-21.94,50.45c-2.12,4.82-5.18,7.23-9.18,7.23-.84,0-1.87-.2-3.09-.61-2.12-.67-3.76-1.78-4.94-3.33-1.17-1.55-1.76-3.33-1.76-5.33,0-1.34.33-2.7,1-4.09l6.83-14.1-13.62-30.9c-.46-1.04-.7-2.21-.7-3.48,0-1.92.51-3.69,1.52-5.33,1.02-1.64,2.41-2.87,4.18-3.68Z"/>
    <path class="cls-1" d="M359.7,117.59c-2.84,0-5.28-1.03-7.31-3.09-2.03-2.06-3.05-4.51-3.05-7.36v-45.01c0-1.89.46-3.66,1.39-5.31.93-1.65,2.21-2.94,3.83-3.85,1.63-.91,3.37-1.37,5.22-1.37h24.33c2.5,0,4.67.93,6.53,2.79,1.71,1.71,2.57,3.82,2.57,6.31,0,2.35-.91,4.53-2.74,6.53-1.95,1.71-4.09,2.57-6.44,2.57h-13.97v6.4h11.84c1.68,0,3.18.41,4.51,1.24,1.32.83,2.37,1.94,3.16,3.33.78,1.39,1.18,2.9,1.18,4.53-.06,1.68-.49,3.19-1.31,4.51-.81,1.32-1.9,2.37-3.26,3.16-1.36.78-2.81,1.18-4.35,1.18h-11.75v13.01c0,2.84-1.02,5.3-3.05,7.36-2.03,2.06-4.47,3.09-7.31,3.09Z"/>
    <path class="cls-1" d="M397.22,114.37c-1.97-1.97-2.96-4.35-2.96-7.14v-51.62c0-1.74.45-3.37,1.35-4.88.9-1.51,2.12-2.71,3.66-3.59,1.54-.88,3.24-1.33,5.09-1.33,1.77.03,3.4.5,4.9,1.41,1.49.91,2.67,2.13,3.53,3.63.86,1.51,1.28,3.15,1.28,4.92v51.36c0,2.84-.94,5.25-2.83,7.23-2.03,1.89-4.38,2.83-7.05,2.83s-4.99-.94-6.96-2.83Z"/>
    <path class="cls-1" d="M437.4,67.4c1.89-.38,3.35-.57,4.4-.57,4.41,0,8.08,1.44,11.01,4.31v.26l8.23-4.4c.7-.46,1.52-.7,2.48-.7,1.42,0,2.61.54,3.57,1.61,2.44,2.44,3.66,5.44,3.66,9.01v30.21c0,2.93-.93,5.33-2.79,7.18-1.86,1.86-4.19,2.79-7.01,2.79l-8.14-4.61v.44c-2.7,2.84-6.34,4.27-10.93,4.27-1.51,0-3.21-.17-5.09-.52-2.7-.52-5.33-1.66-7.88-3.42-2.55-1.76-4.77-4.05-6.66-6.9-1.28-2.15-2.23-4.42-2.87-6.83-.64-2.41-.96-5.16-.96-8.27.2-4,1.17-7.7,2.9-11.1,1.73-3.4,4-6.2,6.81-8.42s5.91-3.66,9.27-4.33ZM438.14,92.52c0,2.03.59,3.82,1.79,5.35,1.31,1.6,2.93,2.39,4.87,2.39,1.16,0,2.26-.31,3.31-.94,1.05-.62,1.87-1.53,2.48-2.72.52-.87.83-1.73.91-2.57.06-.67.09-1.6.09-2.79-.43-2.99-1.8-5.01-4.09-6.05-.99-.46-1.92-.7-2.79-.7-1.6,0-2.97.58-4.13,1.74-1.16,1.16-1.92,2.71-2.26,4.66-.03.29-.05.54-.07.76-.01.22-.05.5-.11.85Z"/>
    <path class="cls-1" d="M473.79,70.06c1.71-1.54,3.74-2.31,6.09-2.31h.87v-4.31c0-2.73.99-5.12,2.96-7.18,1.91-1.92,4.22-2.87,6.92-2.87s5.08.99,7.05,2.96c1.97,2.15,2.96,4.59,2.96,7.31v4.09h1.13c2.26,0,4.22.8,5.88,2.39,1.68,1.68,2.53,3.67,2.53,5.96,0,.64-.09,1.29-.26,1.96-.17.67-.44,1.31-.8,1.94-.36.62-.78,1.2-1.24,1.72-1.71,1.71-3.74,2.61-6.09,2.7h-1.22v22.63c0,2.84-.99,5.25-2.96,7.23-1.86,1.94-4.18,2.92-6.96,2.92s-5.06-.97-7.01-2.92c-1.97-2.06-2.96-4.5-2.96-7.31v-22.72h-.7c-2.5,0-4.64-.9-6.44-2.7-1.54-1.54-2.31-3.38-2.31-5.53,0-2.35.86-4.34,2.57-5.96Z"/>
  </g>
</svg>