<?xml version="1.0" encoding="UTF-8"?>
<svg id="Layer_1" data-name="Layer 1" xmlns="http://www.w3.org/2000/svg" viewBox="0 0 332.71 337.85">
  <defs>
    <style>
      .cls-1 {
        fill: #6e0bfc;
      }
    </style>
  </defs>
  <path class="cls-1" d="M164.53,321.72c-28.56,0-56.81-8.37-80.83-24.42-17.97-12.01-33.31-28.16-44.36-46.73-3.8-6.38-1.71-14.64,4.68-18.44,6.38-3.8,14.64-1.71,18.44,4.68,9.01,15.14,21.53,28.32,36.19,38.12,27.3,18.24,61.34,24.31,93.39,16.66,30.89-7.38,57.98-27.34,74.31-54.78,3.8-6.38,12.05-8.47,18.44-4.68,6.38,3.8,8.48,12.05,4.68,18.44-20.03,33.64-53.26,58.13-91.18,67.18-11.13,2.66-22.46,3.97-33.75,3.97Z"/>
  <path class="cls-1" d="M289.67,196.08c-7.43,0-13.45-6.02-13.45-13.45v-61.39c-12.04-10.81-63.62-43.99-112.44-73.53-46.66,29.51-95.89,62.62-107.3,73.35v61.53c0,7.43-6.02,13.45-13.45,13.45s-13.45-6.02-13.45-13.45v-65.85c0-7.95,4.77-13.43,24.28-27.89,10.18-7.55,24.32-17.34,42.01-29.12,29.95-19.94,60.29-39.01,60.59-39.2l7-4.4,7.08,4.26c.32.19,32.02,19.26,63.32,39.19,18.48,11.77,33.25,21.57,43.88,29.11,20.39,14.45,25.37,19.96,25.37,28.06v65.88c0,7.43-6.02,13.45-13.45,13.45Z"/>
  <rect class="cls-1" x="92.75" y="124.86" width="56.16" height="93.22" rx="10.63" ry="10.63"/>
  <rect class="cls-1" x="179.89" y="124.86" width="56.16" height="93.22" rx="10.63" ry="10.63"/>
</svg>
